# xmcd
#
# Track frame offsets:
#	150
#	20585
#	41230
#	59880
#	72967
#	90194
#	112669
#
# Disc length: 1725
#
# Revision: 1
# Processed by: cddbd v1.5.1PL0 Copyright (c) Steve Scherf et al.
# Submitted via: ExactAudioCopy v0.95a5
# Normalized: r0:TSWAP
#
DISCID=5806bb07
DTITLE=Various Artist - TAKEO
DYEAR=1900
DGENRE=Rock
TTITLE0=OMD - If You Leave
TTITLE1=Whitney Houston - How will I know
TTITLE2=Survivor - Eye of the Tiger
TTITLE3=Spice Girls - Wannabe
TTITLE4=Survivor - The Moment of Truth
TTITLE5=REO Speedwagon - Live Every Moment
TTITLE6=Survivor - Is This Love
EXTD=
EXTT0=
EXTT1=
EXTT2=
EXTT3=
EXTT4=
EXTT5=
EXTT6=
PLAYORDER=
